<svg xmlns="http://www.w3.org/2000/svg" width="17" height="15" viewBox="0 0 17 15">
  <g id="Subtraction_2" data-name="Subtraction 2" fill="none" stroke-linejoin="round">
    <path d="M12.75,15H4.25L0,7.5,4.25,0h8.5L17,7.5,12.75,15ZM8.5,4.459A3.042,3.042,0,1,0,11.465,7.5,3.007,3.007,0,0,0,8.5,4.459Z" stroke="none"/>
    <path d="M 12.16757488250732 14.00019931793213 L 15.85100269317627 7.500099182128906 L 12.16757488250732 0.9999992251396179 L 4.832831382751465 0.9999992251396179 L 1.149403929710388 7.500099182128906 L 4.832831382751465 14.00019931793213 L 12.16757488250732 14.00019931793213 M 8.500203132629395 3.459449291229248 C 10.68654346466064 3.459449291229248 12.46526336669922 5.272079467773438 12.46526336669922 7.500099182128906 C 12.46526336669922 9.728118896484375 10.68654346466064 11.54074954986572 8.500203132629395 11.54074954986572 C 6.31376314163208 11.54074954986572 4.53497314453125 9.728118896484375 4.53497314453125 7.500099182128906 C 4.53497314453125 5.272079467773438 6.31376314163208 3.459449291229248 8.500203132629395 3.459449291229248 M 12.75024318695068 15.00029945373535 L 12.75030326843262 15.00019931793213 L 4.250102996826172 15.00019931793213 L 3.132629444735358e-06 7.500099182128906 L 4.250102996826172 -7.499695016122132e-07 L 12.75030326843262 -7.499695016122132e-07 L 17.00040245056152 7.500099182128906 L 12.75024318695068 15.00029945373535 Z M 8.500203132629395 4.459449291229248 C 6.86517333984375 4.459449291229248 5.53497314453125 5.823479175567627 5.53497314453125 7.500099182128906 C 5.53497314453125 9.176719665527344 6.86517333984375 10.54074954986572 8.500203132629395 10.54074954986572 C 10.1351432800293 10.54074954986572 11.46526336669922 9.176719665527344 11.46526336669922 7.500099182128906 C 11.46526336669922 5.823479175567627 10.1351432800293 4.459449291229248 8.500203132629395 4.459449291229248 Z" stroke="none" fill="#8c8c8c"/>
  </g>
</svg>
