<svg xmlns="http://www.w3.org/2000/svg" width="17" height="17" viewBox="0 0 17 17">
  <g id="Subtraction_1" data-name="Subtraction 1" transform="translate(0 -3)" fill="none">
    <path d="M8.5,20A8.5,8.5,0,0,1,7.846,3.024V8.967A2.616,2.616,0,1,0,11.114,11.6L16.8,9.646A8.553,8.553,0,0,1,17,11.5,8.5,8.5,0,0,1,8.5,20Zm2.554-9.068h0A2.632,2.632,0,0,0,8.5,8.884V3a8.427,8.427,0,0,1,5.1,1.7A8.569,8.569,0,0,1,16.63,9.012l-5.576,1.92Z" stroke="none"/>
    <path d="M 8.499761581420898 18.99979972839355 C 10.50322151184082 18.99979972839355 12.38675117492676 18.21966934204102 13.80338191986084 16.80311965942383 C 15.21996116638184 15.38660049438477 16.00010108947754 13.50327014923096 16.00010108947754 11.50004005432129 C 16.00010108947754 11.32776260375977 15.99424266815186 11.15563774108887 15.98257446289062 10.98411464691162 L 12.01609706878662 12.34992408752441 C 11.63517379760742 13.94693756103516 10.20662975311279 15.1151704788208 8.499761581420898 15.1151704788208 C 6.50637149810791 15.1151704788208 4.884631633758545 13.49343013763428 4.884631633758545 11.50004005432129 C 4.884631633758545 10.12232685089111 5.661052227020264 8.891666412353516 6.845971584320068 8.283258438110352 L 6.845971584320068 4.18250036239624 C 5.383286952972412 4.511431694030762 4.048305511474609 5.274592876434326 3.009211540222168 6.39084005355835 C 1.71355152130127 7.782690048217773 1.000001549720764 9.597169876098633 1.000001549720764 11.50004005432129 C 1.000001549720764 13.50324058532715 1.780131459236145 15.38658046722412 3.196661472320557 16.80312919616699 C 4.613221645355225 18.21966934204102 6.496561527252197 18.99979972839355 8.499761581420898 18.99979972839355 M 11.62180423736572 9.678897857666016 L 15.33125019073486 8.40143871307373 C 14.81225395202637 7.264156341552734 14.00623607635498 6.255215644836426 13.0011510848999 5.499850273132324 C 11.96405124664307 4.720424652099609 10.76881217956543 4.232820987701416 9.499761581420898 4.065128326416016 L 9.499761581420898 8.027587890625 C 10.38911724090576 8.287299156188965 11.15341949462891 8.883589744567871 11.62180423736572 9.678897857666016 M 8.499761581420898 19.99979972839355 C 6.22944164276123 19.99979972839355 4.094981670379639 19.11565017700195 2.489561557769775 17.51024055480957 C 0.8841515183448792 15.90482044219971 1.498413098488527e-06 13.77035999298096 1.498413098488527e-06 11.50004005432129 C 1.498413098488527e-06 9.343480110168457 0.8087415099143982 7.287020206451416 2.27726149559021 5.709480285644531 C 3.738161563873291 4.140110015869141 5.715831279754639 3.186560153961182 7.845971584320068 3.024470090866089 L 7.845971584320068 8.966710090637207 C 6.690961360931396 9.263750076293945 5.884631633758545 10.3052396774292 5.884631633758545 11.50004005432129 C 5.884631633758545 12.94202995300293 7.057771682739258 14.1151704788208 8.499761581420898 14.1151704788208 C 9.910911560058594 14.1151704788208 11.05909156799316 13.01171016693115 11.1137113571167 11.60301971435547 L 16.79728126525879 9.645950317382812 C 16.93215179443359 10.25236988067627 17.00010108947754 10.87600994110107 17.00010108947754 11.50004005432129 C 17.00010108947754 13.77039051055908 16.11593055725098 15.90485000610352 14.51047134399414 17.51024055480957 C 12.9049711227417 19.11565017700195 10.77033138275146 19.99979972839355 8.499761581420898 19.99979972839355 Z M 11.05369186401367 10.93216991424561 L 11.05353164672852 10.9314603805542 C 10.79046154022217 9.745269775390625 9.716451644897461 8.884329795837402 8.499761581420898 8.884329795837402 L 8.499761581420898 2.99970006942749 C 10.35768127441406 2.99970006942749 12.12176132202148 3.588030099868774 13.60194110870361 4.700439929962158 C 15.03392124176025 5.776639938354492 16.10935211181641 7.307760238647461 16.63011169433594 9.011770248413086 L 11.05369186401367 10.93216991424561 Z" stroke="none" fill="gray"/>
  </g>
</svg>
